<svg width="33" height="32" viewBox="0 0 33 32" fill="none" xmlns="http://www.w3.org/2000/svg">
<path d="M16.1493 0C7.3528 0 0.194336 7.17731 0.194336 16C0.194336 24.8213 7.3528 32 16.1493 32C24.9471 32 32.1042 24.8213 32.1042 16C32.1042 7.17731 24.9471 0 16.1493 0ZM25.354 16.5093C25.2861 16.672 25.1891 16.82 25.0668 16.9426L19.7485 22.2759C19.4892 22.5359 19.1489 22.6666 18.8084 22.6666C18.4681 22.6666 18.129 22.5359 17.8684 22.2759C17.3499 21.7546 17.3499 20.9106 17.8684 20.3906L20.9171 17.3333H8.1718C7.43787 17.3333 6.84224 16.736 6.84224 16C6.84224 15.2627 7.43787 14.6667 8.1718 14.6667H20.9171L17.8684 11.6094C17.3499 11.0881 17.3499 10.2441 17.8684 9.72406C18.3883 9.20275 19.2299 9.20275 19.7484 9.72406L25.0667 15.0561C25.189 15.1788 25.2861 15.3268 25.3539 15.4908C25.4882 15.816 25.4882 16.1827 25.354 16.5093Z" fill="#EF6236"/>
</svg>
